<?xml version="1.0" encoding="utf-8"?>
<!-- Generator: Adobe Illustrator 16.0.0, SVG Export Plug-In . SVG Version: 6.00 Build 0)  -->
<!DOCTYPE svg PUBLIC "-//W3C//DTD SVG 1.0//EN" "http://www.w3.org/TR/2001/REC-SVG-20010904/DTD/svg10.dtd">
<svg version="1.0" id="Layer_1" xmlns="http://www.w3.org/2000/svg" xmlns:xlink="http://www.w3.org/1999/xlink" x="0px" y="0px"
	 width="323.668px" height="58px" viewBox="0 0 323.668 58" enable-background="new 0 0 323.668 58" xml:space="preserve">
<line fill="none" x1="275.501" y1="399.498" x2="336.501" y2="399.498"/>
<line fill="none" x1="495.501" y1="447.498" x2="556.501" y2="447.498"/>
<g>
	<g>
		<g>
			<g>
				<g>
					<g opacity="0.85">
						<g opacity="0.9">
							<path fill="#D1D3D4" d="M110.275,42.102c0.665,0.232,1.233,0.5,1.686,0.811c1.268-0.014,2.527-0.028,3.794-0.043
								c0.569-0.011,1.133-0.022,1.697-0.034C115.015,42.681,112.63,42.409,110.275,42.102z"/>
							<path fill="#D1D3D4" d="M85.252,39.375c2.925,0.88,9.063,0.952,14.839,1.27C94.999,40.081,90.031,39.604,85.252,39.375z"/>
							<path fill="#D1D3D4" d="M66.859,45.153c0.523,0.127,1.033,0.268,1.526,0.428c2.702-0.072,5.391-0.223,8.08-0.339
								c-0.572-0.089-1.134-0.177-1.707-0.266C72.127,45.054,69.494,45.115,66.859,45.153z"/>
							<path fill="#D1D3D4" d="M110.003,43.746c-6.349,0.217-13.226-0.322-19.916-0.679c-6.691-0.373-13.191-0.504-18.81,0.638
								c1.745,0.457,3.639,0.85,5.582,1.216c5.709-0.149,11.419-0.244,17.117-0.333c3.428-0.097,6.859-0.148,10.288-0.133
								c2.95-0.005,5.899-0.01,8.843-0.015c-0.132-0.598-0.523-1.103-1.146-1.528c-2.337,0.012-4.67,0.023-7,0.034
								C106.583,43.277,108.244,43.565,110.003,43.746z"/>
							<path fill="#D1D3D4" d="M78.16,45.164c5.273-0.245,10.549-0.44,15.816-0.576c-5.698,0.09-11.408,0.185-17.117,0.333
								C77.29,45.001,77.724,45.083,78.16,45.164z"/>
							<path fill="#D1D3D4" d="M92.361,40.75c4.579,0.262,8.459,1.359,12.6,2.196c2.33-0.011,4.663-0.022,7-0.034
								c-0.453-0.311-1.021-0.578-1.686-0.811C104.301,41.335,98.496,40.399,92.361,40.75z"/>
							<path fill="#D1D3D4" d="M100.091,40.646c2.93,0.357,5.907,0.72,8.905,1.084C106.592,41.133,103.402,40.84,100.091,40.646z"/>
							<path fill="#D1D3D4" d="M104.264,44.455c-3.429-0.015-6.86,0.036-10.288,0.133C97.407,44.543,100.839,44.499,104.264,44.455z
								"/>
							<path fill="#D1D3D4" d="M58.568,45.313c0.8,0.099,1.591,0.196,2.392,0.295c1.53,0.014,3.054,0.028,4.577,0.042l1.183-0.018
								l1.665-0.052c-0.493-0.16-1.002-0.301-1.526-0.428L58.568,45.313z"/>
							<path fill="#D1D3D4" d="M47.512,41.935c0.34,0.128,0.691,0.244,1.042,0.356c1.687,0.018,3.38,0.035,5.07,0.053
								C51.59,42.177,49.556,42.072,47.512,41.935z"/>
							<path fill="#D1D3D4" d="M113.152,44.659c-0.004-0.076-0.029-0.144-0.046-0.218c-2.944,0.005-5.893,0.01-8.843,0.015
								C107.226,44.466,110.189,44.529,113.152,44.659z"/>
							<path fill="#D1D3D4" d="M48.553,42.291c-6.67-0.142-13.325-0.196-19.983-0.121c6.045,0.75,12.101,1.535,18.401,2.047
								c3.85,0.275,7.734,0.613,11.597,1.096l8.291-0.161C61.31,43.785,54.314,44.041,48.553,42.291z"/>
							<path fill="#D1D3D4" d="M74.758,44.975l2.101-0.054c-1.942-0.367-3.836-0.759-5.582-1.216
								c5.619-1.143,12.118-1.011,18.81-0.638c6.69,0.357,13.567,0.896,19.916,0.679c-1.759-0.181-3.42-0.469-5.042-0.799
								c-4.34-0.009-8.662-0.018-12.966-0.026c-4.305-0.057-8.594-0.114-12.869-0.17c-8.548-0.136-17.042-0.272-25.503-0.407
								C60.756,42.887,67.813,43.926,74.758,44.975z"/>
							<path fill="#D1D3D4" d="M66.859,45.153c2.635-0.038,5.268-0.099,7.899-0.178c-6.945-1.049-14.002-2.088-21.135-2.631
								c-1.689-0.018-3.383-0.035-5.07-0.053C54.314,44.041,61.31,43.785,66.859,45.153z"/>
							<path fill="#D1D3D4" d="M74.758,44.975c0.573,0.089,1.134,0.177,1.707,0.266l1.695-0.078c-0.436-0.081-0.87-0.162-1.3-0.242
								L74.758,44.975z"/>
							<path fill="#D1D3D4" d="M118.432,42.891l-0.979-0.055c-0.563,0.011-1.127,0.022-1.697,0.034
								c-1.268,0.015-2.526,0.029-3.794,0.043c0.622,0.425,1.013,0.93,1.146,1.528c6.428,0.021,12.828,0.125,19.194,0.35
								c0.841-0.114,1.654-0.252,2.438-0.416C129.321,44.077,123.856,43.525,118.432,42.891z"/>
							<path fill="#D1D3D4" d="M76.465,45.241c0.438,0.069,0.88,0.139,1.323,0.209c0.628-0.003,1.26-0.006,1.898-0.01
								c-0.51-0.092-1.019-0.185-1.526-0.277L76.465,45.241z"/>
							<path fill="#D1D3D4" d="M66.72,45.632c0.582-0.009,1.157-0.019,1.741-0.028c-0.021-0.006-0.047-0.015-0.076-0.024
								L66.72,45.632z"/>
							<path fill="#D1D3D4" d="M68.385,45.581c0.029,0.009,0.055,0.018,0.076,0.024c3.081-0.051,6.179-0.102,9.327-0.154
								c-0.443-0.07-0.884-0.14-1.323-0.209C73.775,45.358,71.086,45.509,68.385,45.581z"/>
							<path fill="#D1D3D4" d="M113.152,44.659c-2.963-0.129-5.927-0.193-8.889-0.204c-3.424,0.044-6.856,0.088-10.288,0.133
								c-5.268,0.136-10.543,0.331-15.816,0.576c0.507,0.092,1.017,0.185,1.526,0.277c3.932-0.015,7.956,0.044,12.161,0.245
								c9.61-0.181,16.946-0.587,26.29-0.229c3.938-0.085,9.396-0.018,14.164-0.665c-6.367-0.226-12.766-0.33-19.194-0.35
								C113.124,44.515,113.148,44.583,113.152,44.659z"/>
							<path fill="#D1D3D4" d="M157.795,40.869c-10.216,0.355-20.414,1.134-30.789,1.631c5.101,0.65,10.167,1.374,15.267,2.122
								c1.223,0.007,2.438-0.006,3.649-0.036c0.959-0.408,1.913-0.804,2.652-0.729c1.286,0.129,2.51,0.253,3.707,0.374
								c5.167-0.477,10.209-1.312,15.061-2.8C164.137,41.241,160.955,41.054,157.795,40.869z"/>
							<path fill="#D1D3D4" d="M140.343,44.592c1.293,0.211,2.65,0.451,4.054,0.594c0.166-0.053,0.336-0.116,0.51-0.182
								l-2.633-0.382C141.634,44.612,140.986,44.602,140.343,44.592z"/>
							<path fill="#D1D3D4" d="M172.208,41.7c-1.633-0.091-3.251-0.181-4.866-0.27c-4.852,1.488-9.894,2.323-15.061,2.8
								c4.092,0.387,7.84,0.708,12.421,0.756c2.528-0.308,3.58-2.543,5.844-2.293c7.962,0.799,17.812,2.909,26.02,1.014
								c2.849-0.183,5.902-0.378,9.032-0.58c3.134-0.292,6.337-0.51,9.474-0.989c1.567-0.233,3.12-0.4,4.631-0.712
								c1.512-0.302,2.986-0.613,4.408-0.934c1.426-0.285,2.776-0.748,4.062-1.151c1.284-0.416,2.497-0.838,3.62-1.268
								c-11.375,2.551-21.972,3.2-31.773,3.503C190.193,41.832,181.108,41.724,172.208,41.7z"/>
							<path fill="#D1D3D4" d="M144.907,45.004c0.334-0.127,0.674-0.273,1.016-0.418c-1.211,0.03-2.426,0.043-3.649,0.036
								L144.907,45.004z"/>
							<path fill="#D1D3D4" d="M58.568,45.313l-4.968,0.103c2.46,0.083,4.918,0.151,7.359,0.192
								C60.16,45.51,59.368,45.412,58.568,45.313z"/>
							<path fill="#D1D3D4" d="M118.855,42.803l-0.977,0.025c0.187,0.021,0.366,0.042,0.553,0.062l0.863,0.041
								C119.148,42.888,119.003,42.846,118.855,42.803z"/>
							<path fill="#D1D3D4" d="M105.623,40.359c4.928,0.51,9.206,1.233,13.233,2.444c2.733-0.07,5.447-0.177,8.151-0.303
								C120.016,41.605,112.949,40.848,105.623,40.359z"/>
							<path fill="#D1D3D4" d="M119.294,42.931l-0.863-0.041c5.425,0.634,10.889,1.186,16.308,1.484
								c0.194-0.042,0.392-0.083,0.579-0.124c1.486-0.191,3.185,0.044,5.025,0.34c0.644,0.01,1.291,0.02,1.931,0.03
								c-5.1-0.748-10.166-1.472-15.267-2.122c-2.705,0.126-5.418,0.232-8.151,0.303C119.003,42.846,119.148,42.888,119.294,42.931z
								"/>
							<path fill="#D1D3D4" d="M108.997,41.73c0.455,0.112,0.885,0.236,1.278,0.372c2.355,0.307,4.74,0.579,7.177,0.734
								c0.14-0.002,0.283-0.005,0.426-0.008C114.905,42.46,111.935,42.093,108.997,41.73z"/>
							<path fill="#D1D3D4" d="M117.452,42.836l0.979,0.055c-0.187-0.021-0.366-0.042-0.553-0.062
								C117.735,42.831,117.592,42.833,117.452,42.836z"/>
							<path fill="#D1D3D4" d="M48.553,42.291c-0.35-0.112-0.702-0.228-1.042-0.356c2.044,0.137,4.078,0.242,6.111,0.409
								c8.461,0.135,16.955,0.271,25.503,0.407c4.275,0.057,8.563,0.113,12.869,0.17c4.305,0.008,8.626,0.017,12.966,0.026
								c-4.141-0.837-8.021-1.935-12.6-2.196c6.135-0.351,11.94,0.585,17.914,1.352c-0.393-0.136-0.824-0.26-1.278-0.372
								c-2.998-0.365-5.976-0.728-8.905-1.084c-5.776-0.318-11.915-0.39-14.839-1.27c4.779,0.228,9.747,0.705,14.839,1.27
								c3.311,0.194,6.5,0.487,8.905,1.084c2.938,0.363,5.909,0.73,8.882,1.098l0.977-0.025c-4.027-1.21-8.305-1.934-13.233-2.444
								c7.327,0.489,14.394,1.247,21.384,2.141c10.375-0.497,20.572-1.276,30.789-1.631c-15.72-0.858-31.085-1.629-47.557-1.5
								c-3.405-0.352-7.069-0.143-10.728,0.065c-5.061,0.666-10.204-1.067-15.257-0.462c-19.956,1.986-41.196,1.052-61.405-2.084
								c-3.363-0.545-7.587,0.541-11.84,1.626c-1.135,0.29-2.015,0.75-2.658,1.283c6.951,0.483,13.578,1.431,20.219,2.375
								C35.229,42.095,41.883,42.149,48.553,42.291z"/>
							<path fill="#D1D3D4" d="M46.971,44.218C40.67,43.706,34.615,42.92,28.57,42.17c-7.172-0.049-14.351,0.01-21.561,0.31
								c0.056,0.642,0.418,1.183,1.037,1.474c2.206,2.724,8.803-0.355,13.606-0.168c2.622,0.126,5.262,0.252,7.917,0.38
								c2.653,0.134,5.319,0.268,7.991,0.403c5.342,0.275,10.711,0.708,16.04,0.848l4.968-0.103
								C54.705,44.831,50.821,44.493,46.971,44.218z"/>
							<path fill="#D1D3D4" d="M8.351,39.796c-0.998,0.832-1.424,1.842-1.341,2.685c7.21-0.3,14.388-0.359,21.561-0.31
								C21.928,41.227,15.302,40.279,8.351,39.796z"/>
							<path fill="#9FA1A4" d="M66.785,45.133c0.024,0.006,0.041,0.01,0.064,0.016c0.051-0.005,0.107-0.01,0.155-0.015
								L66.785,45.133z"/>
							<path fill="#9FA1A4" d="M104.264,44.455c-3.429-0.015-6.86,0.036-10.288,0.133C97.407,44.543,100.839,44.499,104.264,44.455z
								"/>
							<path fill="#9FA1A4" d="M60.499,45.551c1.529,0.014,3.051,0.027,4.561,0.041c0.211-0.003,0.41-0.006,0.613-0.009
								c0.131-0.058,0.246-0.108,0.371-0.163c-0.562-0.069-0.562-0.069-1.129-0.14c0.676-0.075,1.312-0.074,1.891-0.127
								c-2.748,0.054-5.493,0.107-8.237,0.16C59.213,45.393,59.857,45.472,60.499,45.551z"/>
							<path fill="#9FA1A4" d="M131.283,44.813c0.115-0.016,0.223-0.031,0.337-0.046c-0.123-0.004-0.243-0.009-0.362-0.013
								C131.263,44.774,131.279,44.793,131.283,44.813z"/>
							<path fill="#9FA1A4" d="M129.148,45.032c0.076-0.006,0.155-0.012,0.234-0.019c-0.014-0.091-0.077-0.206-0.144-0.321
								c-0.421-0.012-0.851-0.024-1.272-0.036C128.35,44.733,128.749,44.876,129.148,45.032z"/>
							<path fill="#9FA1A4" d="M47.512,41.935c0.34,0.128,0.691,0.244,1.042,0.356c1.687,0.018,3.38,0.035,5.07,0.053
								C51.59,42.177,49.556,42.072,47.512,41.935z"/>
							<path opacity="0.9" fill="#9FA1A4" d="M113.152,44.659c-2.963-0.129-5.927-0.193-8.889-0.204
								c-3.424,0.044-6.856,0.088-10.288,0.133c-5.268,0.136-10.543,0.331-15.816,0.576c0.225,0.041,0.451,0.081,0.674,0.121
								c0.766-0.083,1.548-0.154,2.339-0.192l-0.7,0.216c0.176,0.019,0.415,0.045,0.677,0.073c2.165,0.008,4.37,0.042,6.622,0.108
								c1.199-0.067,2.297-0.087,3.106,0.124l0.498,0.02c4.712-0.112,8.876-0.211,13-0.31c0.007-0.131,0.065-0.258,0.119-0.384
								c0.982,0.114,1.958,0.228,2.919,0.339c2.319-0.023,4.663-0.017,7.12,0.039c0.334-0.236-0.947-0.637-0.302-0.841
								c0.083-0.009,0.155-0.017,0.23-0.025c-0.453-0.003-0.901-0.007-1.356-0.01C113.124,44.515,113.148,44.583,113.152,44.659z"/>
							<path fill="#9FA1A4" d="M76.465,45.241c0.331,0.052,0.666,0.105,0.988,0.156c0.171-0.002,0.334-0.004,0.498-0.006
								l0.883-0.106c-0.223-0.04-0.449-0.081-0.674-0.121L76.465,45.241z"/>
							<path fill="#9FA1A4" d="M129.225,43.99c-3.602-0.295-7.208-0.678-10.793-1.1l-0.979-0.055
								c-0.563,0.011-1.127,0.022-1.697,0.034c-1.268,0.015-2.526,0.029-3.794,0.043c0.622,0.425,1.013,0.93,1.146,1.528
								c0.455,0.003,0.903,0.007,1.356,0.01c0.449-0.045,0.818-0.039,1.134,0.004c3.834,0.023,7.662,0.079,11.476,0.177
								c0.286-0.055,0.583-0.04,0.895,0.024c0.421,0.012,0.851,0.024,1.272,0.036C129.087,44.432,128.938,44.148,129.225,43.99z"/>
							<path fill="#9FA1A4" d="M182.509,41.419c-0.051-0.013-0.099-0.025-0.144-0.036c-0.059,0.003-0.117,0.006-0.173,0.009
								C182.294,41.401,182.401,41.41,182.509,41.419z"/>
							<path opacity="0.9" fill="#ADAFB2" d="M158.065,40.861c-10.312,0.35-20.593,1.138-31.059,1.639
								c3.84,0.494,7.665,1.016,11.493,1.573c0.279,0.002,0.565,0.005,0.86,0.007c-0.139,0.022-0.267,0.042-0.381,0.061
								c0.358,0.052,0.712,0.104,1.067,0.155c0.14-0.2,0.196-0.437,0.14-0.715c1.008,0.396,3.534,0.069,3.142,0.91
								c-0.014,0.049-0.066,0.092-0.127,0.132l2.104-0.021c1.008-0.43,2.028-0.872,2.8-0.793c0.142,0.014,0.277,0.028,0.417,0.042
								c0.477,0.003,0.988,0.052,1.551,0.157c0.004,0.003,0.012,0.003,0.016,0.003c0.389-0.841-1.75-1.352-1.054-1.574
								c3.224-0.58,4.058,0.52,3.804,1.744c5-0.497,9.873-1.322,14.574-2.772C164.272,41.224,161.158,41.042,158.065,40.861z"/>
							<path opacity="0.9" fill="#ABADB0" d="M182.366,41.383c0.045,0.011,0.092,0.023,0.144,0.036
								c-0.108-0.009-0.215-0.018-0.316-0.027c-3.506,0.167-6.992,0.292-10.454,0.257c-1.45-0.081-2.889-0.161-4.329-0.242
								c-4.701,1.451-9.573,2.276-14.574,2.772l-0.02,0.094c3.708,0.339,7.211,0.616,11.417,0.661
								c2.53-0.31,6.142-0.938,8.407-0.687c7.942,0.829,13.218,0.261,21.412-1.637c6.13,0.091,11.904,0.002,17.521-0.439
								c5.61-0.541,11.096-1.399,16.441-3.232c-6.823,1.448-14.682,1.974-22.572,2.09C197.547,41.143,189.584,40.993,182.366,41.383
								z"/>
							<path fill="#9FA1A4" d="M142.97,44.723c0.502,0.073,1.006,0.146,1.503,0.218c0.274-0.112,0.548-0.225,0.83-0.34l-2.104,0.021
								C143.136,44.656,143.057,44.69,142.97,44.723z"/>
							<path fill="#9FA1A4" d="M117.767,45.404c0.425-0.007,0.878-0.014,1.334-0.021c0.281-0.176,0.854-0.097,1.32-0.019
								c1.125-0.021,2.308-0.043,3.528-0.065c0.019-0.042,0.041-0.089,0.061-0.134c0,0,0.135,0.05,0.329,0.122
								c0.659-0.024,1.323-0.05,1.995-0.075c0.093-0.134,0.159-0.275,0.205-0.378c0.169-0.106,0.354-0.169,0.534-0.203
								c-3.813-0.098-7.642-0.154-11.476-0.177C116.507,44.582,116.982,45.021,117.767,45.404z"/>
							<path fill="#9FA1A4" d="M130.488,44.091c0.414,0.154,0.671,0.403,0.771,0.663c0.119,0.004,0.239,0.008,0.362,0.013
								c0.885-0.116,1.745-0.255,2.57-0.423C132.962,44.26,131.725,44.176,130.488,44.091z"/>
							<path fill="#9FA1A4" d="M142.213,44.919c0.557,0.082,1.129,0.159,1.71,0.218c0.181-0.058,0.364-0.124,0.549-0.196
								c-0.498-0.072-1.001-0.146-1.503-0.218C142.764,44.797,142.499,44.859,142.213,44.919z"/>
							<path fill="#9FA1A4" d="M113.152,44.659c-0.004-0.076-0.029-0.144-0.046-0.218c-2.944,0.005-5.893,0.01-8.843,0.015
								C107.226,44.466,110.189,44.529,113.152,44.659z"/>
							<path opacity="0.9" fill="#9FA1A4" d="M53.623,42.344c-1.689-0.018-3.383-0.035-5.07-0.053
								c5.732,1.74,12.677,1.499,18.212,2.838c0.43-0.056,0.908-0.192,1.386-0.333c-0.339,0.196-0.725,0.287-1.147,0.338
								c0.08,0.004,0.167,0.008,0.247,0.012c2.501-0.035,5.009-0.095,7.507-0.171C67.813,43.926,60.756,42.887,53.623,42.344z"/>
							<path opacity="0.9" fill="#CBCCCE" d="M48.553,42.291c-0.35-0.112-0.702-0.228-1.042-0.356
								c2.044,0.137,4.078,0.242,6.111,0.409c8.461,0.135,16.955,0.271,25.503,0.407c4.275,0.057,8.563,0.113,12.869,0.17
								c4.305,0.008,8.626,0.017,12.966,0.026c-4.141-0.837-8.021-1.935-12.6-2.196c6.135-0.351,11.94,0.585,17.914,1.352
								c-0.393-0.136-0.824-0.26-1.278-0.372c-2.998-0.365-5.976-0.728-8.905-1.084c-4.779-0.267-9.801-0.352-13.047-0.887
								c-3.683-0.182-7.388-0.308-11.322,0.029c-0.77,0.093-1.806,0.265-2.814,0.219c-0.834,0.092-1.712,0.149-2.632,0.153
								c-1.08,0.373-2.894,0.206-3.843,0.31c-2.133,0.231-4.232,0.006-6.266-0.312c-0.203,0.018-0.405,0.036-0.6,0.053
								c-0.533,0.159-1.962,0.037-3.001-0.335c-1.083-0.026-2.171-0.053-3.253-0.08c-0.242,0-0.476-0.005-0.71-0.023l-2.844-0.11
								c-0.365,0.157-0.763,0.098-1.206-0.063c-4.396-0.272-8.79-0.636-13.161-1.083c-2.185-0.223-4.365-0.467-6.536-0.731
								c-2.17-0.278-4.327-0.633-6.475-0.975c-3.364-0.546-7.589,0.539-11.841,1.623c-1.167,0.3-2.061,0.776-2.708,1.328
								c7.141,0.471,13.93,1.441,20.737,2.408C35.229,42.095,41.883,42.149,48.553,42.291z"/>
							<path fill="#9FA1A4" d="M96.926,40.301l0.112-0.242c-0.842,0.016-1.684,0.016-2.518,0.004
								C95.319,40.143,96.122,40.222,96.926,40.301z"/>
							<path fill="#9FA1A4" d="M74.758,44.975c-2.499,0.076-5.006,0.136-7.507,0.171c1.091,0.03,2.257,0.156,3.293,0.363
								l5.921-0.268C75.893,45.152,75.331,45.064,74.758,44.975z"/>
							<path fill="#B6B8BA" d="M108.997,41.73c2.938,0.363,5.909,0.73,8.882,1.098l0.977-0.025
								c-4.027-1.21-8.305-1.934-13.233-2.444c7.327,0.489,14.394,1.247,21.384,2.141c10.466-0.5,20.747-1.289,31.059-1.639
								c-8.938-0.484-17.757-0.955-26.715-1.244c-0.618,0.151-1.062,0.5-1.235,0.883c-8.003-1.982-16.669,0.088-25.18-0.8
								c-0.313-0.242,0.466-0.222,0.773-0.315c-1.017,0.02-2.024,0.041-3.037,0.061c-1.647,0.343-3.363,0.875-5.437,0.887
								c0.945,0.104,1.896,0.208,2.855,0.312C103.402,40.84,106.592,41.133,108.997,41.73z"/>
							<path fill="#9FA1A4" d="M105.623,40.359c4.928,0.51,9.206,1.233,13.233,2.444c2.733-0.07,5.447-0.177,8.151-0.303
								C120.016,41.605,112.949,40.848,105.623,40.359z"/>
							<path fill="#9FA1A4" d="M100.091,40.646c-0.959-0.105-1.911-0.209-2.855-0.312c-0.111,0.002-0.215,0.004-0.322,0.007
								l0.012-0.039c-0.804-0.08-1.607-0.159-2.406-0.238c-2.52-0.022-4.99-0.183-7.476-0.305
								C90.291,40.293,95.312,40.378,100.091,40.646z"/>
							<path fill="#9FA1A4" d="M60.499,45.551c-0.641-0.079-1.286-0.158-1.93-0.238l-3.776,0.079l0.058,0.023
								C56.739,45.46,58.622,45.506,60.499,45.551z"/>
							<path opacity="0.9" fill="#C2C4C6" d="M28.57,42.17c-7.324-0.05-14.65,0.016-22.021,0.33c0.089,0.599,0.439,1.102,1.03,1.377
								c0.922,1.146,2.629,1.264,4.652,1.031c0.025-0.245-2.378-0.084-0.98-0.437c0.86-0.453,2.849-0.723,4.541-0.45
								c0.312,0.054,0.585,0.101,0.835,0.144l0.354-0.064c0.126-0.219,0.281-0.376,0.62-0.104c1.237-0.195,7.809,0.803,8.935,0.847
								c-0.02-0.004-5.268-1.125-5.291-1.13c0.298-0.044,0.603-0.09,0.927-0.139c-0.03,0.059-0.06,0.116-0.099,0.175
								c0.334,0.014,0.664,0.028,1,0.042c0.374-0.296,0.519-0.709,1.225-0.759c-0.565-0.092-0.565-0.092-1.127-0.183
								c0.851-0.454,2.544-0.18,3.673,0.003c-0.282,0.542-1.416,0.361-1.978,0.271l0.562,0.09c-0.562-0.09-1.837-0.001-1.413,0.361
								c0.312,0.273,1.183,0.142,1.839,0.093c0.136-0.021,0.288-0.026,0.438-0.011c0.044,0.004,0.084,0.006,0.124,0.013
								c-0.04-0.007-0.08-0.009-0.124-0.013c-0.123-0.006-0.275,0-0.438,0.011c-0.233,0.034-0.403,0.118-0.408,0.243
								c0.562,0.032,1.126,0.064,1.691,0.096c0.089-0.044,0.189-0.085,0.292-0.119c-0.134-0.03-0.285-0.07-0.446-0.126l0.567,0.091
								l-0.121,0.036c1.204,0.249,1.665-0.437,2.806-0.537c-0.663,0.183,0.168,0.579-0.312,0.788
								c0.127,0.005,0.254,0.011,0.39,0.017c0.581-0.125,1.201-0.154,1.841-0.132c0.815-0.187,1.592-0.465,2.322-0.67
								c0.085,0.512-0.421,0.66-1.031,0.774c0.625,0.076,1.266,0.175,1.918,0.277c0.456-0.364,0.392-0.625,1.946-0.654
								c-0.119,0.232-0.166,0.529-0.334,0.748c1.158,0.066,2.312,0.132,3.475,0.199c0.227-0.032,0.458-0.074,0.684-0.122
								c0.017-0.023,0.161-0.268,0.702-0.192c-0.229,0.077-0.465,0.139-0.702,0.192v0.004c0.5,0.069,1.021,0.158,1.553,0.251
								l5.849,0.342c-0.027-0.045-0.063-0.087-0.114-0.122c-0.067-0.02-0.135-0.044-0.207-0.074
								c0.087,0.014,0.157,0.041,0.207,0.074c0.853,0.249,1.273-0.439,2.196-0.054l-0.564-0.069c1.444,0.376,2.684,0.05,3.864-0.132
								c-2.319-0.236-4.636-0.407-6.944-0.58C40.67,43.706,34.615,42.92,28.57,42.17z"/>
							<path fill="#9FA1A4" d="M54.953,44.903c-0.212,0.062-0.384,0.113-0.796,0.234l0.635,0.255l3.776-0.079
								C57.362,45.177,56.153,45.039,54.953,44.903z"/>
							<path fill="#B1B3B6" d="M66.805,45.153c0.011-0.001,0.032-0.003,0.044-0.004c-0.023-0.006-0.04-0.01-0.064-0.016
								c-0.016,0-0.04,0-0.057,0c-0.19,0.024-0.375,0.032-0.546,0.009c0.177-0.003,0.363-0.006,0.546-0.009l0.037-0.003
								c-5.535-1.339-12.48-1.098-18.212-2.838c-6.67-0.142-13.325-0.196-19.983-0.121c6.045,0.75,12.101,1.535,18.401,2.047
								c2.308,0.173,4.625,0.343,6.944,0.58c0.554-0.087,1.104-0.142,1.649-0.075c-0.292,0.086-0.459,0.136-0.611,0.181
								c1.201,0.136,2.41,0.274,3.616,0.411C61.312,45.26,64.057,45.207,66.805,45.153z"/>
							<path fill="#ABADB0" d="M7.833,39.762c-1.001,0.854-1.405,1.891-1.284,2.738c7.371-0.314,14.698-0.38,22.021-0.33
								C21.762,41.203,14.974,40.233,7.833,39.762z"/>
							<path fill="#DEDFE0" d="M119.294,42.931l-0.863-0.041c3.585,0.422,7.191,0.805,10.793,1.1
								c0.031-0.014,0.055-0.034,0.099-0.05c0.474-0.026,0.859,0.037,1.165,0.151c1.236,0.084,2.474,0.169,3.702,0.252
								c0.221-0.047,0.443-0.094,0.658-0.14c0.492-0.066,1.012-0.08,1.552-0.062c0.658-0.047,1.358-0.067,2.1-0.068
								c-3.828-0.557-7.653-1.079-11.493-1.573c-2.705,0.126-5.418,0.232-8.151,0.303C119.003,42.846,119.148,42.888,119.294,42.931
								z"/>
							<path fill="#9FA1A4" d="M117.452,42.836l0.979,0.055c-0.187-0.021-0.366-0.042-0.553-0.062
								C117.735,42.831,117.592,42.833,117.452,42.836z"/>
							<path fill="#9FA1A4" d="M92.361,40.75c4.579,0.262,8.459,1.359,12.6,2.196c2.33-0.011,4.663-0.022,7-0.034
								c-0.453-0.311-1.021-0.578-1.686-0.811C104.301,41.335,98.496,40.399,92.361,40.75z"/>
							<path fill="#ABADB0" d="M110.003,43.746c-6.349,0.217-13.226-0.322-19.916-0.679c-6.691-0.373-13.191-0.504-18.81,0.638
								c1.745,0.457,3.639,0.85,5.582,1.216c5.709-0.149,11.419-0.244,17.117-0.333c3.428-0.097,6.859-0.148,10.288-0.133
								c2.95-0.005,5.899-0.01,8.843-0.015c-0.132-0.598-0.523-1.103-1.146-1.528c-2.337,0.012-4.67,0.023-7,0.034
								C106.583,43.277,108.244,43.565,110.003,43.746z"/>
							<path fill="#C9CACC" d="M78.16,45.164c5.273-0.245,10.549-0.44,15.816-0.576c-5.698,0.09-11.408,0.185-17.117,0.333
								C77.29,45.001,77.724,45.083,78.16,45.164z"/>
							<path fill="#9FA1A4" d="M70.544,45.509l0.015,0.004c2.282-0.039,4.574-0.077,6.895-0.116
								c-0.323-0.051-0.657-0.104-0.988-0.156L70.544,45.509z"/>
							<path fill="#CBCCCE" d="M100.091,40.646c2.93,0.357,5.907,0.72,8.905,1.084C106.592,41.133,103.402,40.84,100.091,40.646z"/>
							<path fill="#9FA1A4" d="M74.758,44.975c0.573,0.089,1.134,0.177,1.707,0.266l1.695-0.078c-0.436-0.081-0.87-0.162-1.3-0.242
								L74.758,44.975z"/>
							<path fill="#9FA1A4" d="M138.365,44.319c0.469,0.07,0.955,0.143,1.453,0.217c0.098-0.071,0.163-0.152,0.228-0.24
								c-0.355-0.051-0.709-0.103-1.067-0.155C138.713,44.191,138.519,44.249,138.365,44.319z"/>
							<path fill="#9FA1A4" d="M118.855,42.803l-0.977,0.025c0.187,0.021,0.366,0.042,0.553,0.062l0.863,0.041
								C119.148,42.888,119.003,42.846,118.855,42.803z"/>
							<path fill="#9FA1A4" d="M108.997,41.73c0.455,0.112,0.885,0.236,1.278,0.372c2.355,0.307,4.74,0.579,7.177,0.734
								c0.14-0.002,0.283-0.005,0.426-0.008C114.905,42.46,111.935,42.093,108.997,41.73z"/>
							<path fill="#C9CACC" d="M110.275,42.102c0.665,0.232,1.233,0.5,1.686,0.811c1.268-0.014,2.527-0.028,3.794-0.043
								c0.569-0.011,1.133-0.022,1.697-0.034C115.015,42.681,112.63,42.409,110.275,42.102z"/>
							<path fill="#9FA1A4" d="M71.278,43.705c5.619-1.143,12.118-1.011,18.81-0.638c6.69,0.357,13.567,0.896,19.916,0.679
								c-1.759-0.181-3.42-0.469-5.042-0.799c-4.34-0.009-8.662-0.018-12.966-0.026c-4.305-0.057-8.594-0.114-12.869-0.17
								c-8.548-0.136-17.042-0.272-25.503-0.407c7.133,0.543,14.19,1.582,21.135,2.631l2.101-0.054
								C74.917,44.555,73.023,44.162,71.278,43.705z"/>
						</g>
					</g>
				</g>
			</g>
		</g>
	</g>
</g>
<g>
	<g>
		<g>
			<g>
				<g>
					<g opacity="0.85">
						<g opacity="0.9">
							<path fill="#D1D3D4" d="M214.905,13.398c-0.592-0.208-1.1-0.455-1.509-0.75c-1.114,0.058-2.222,0.116-3.337,0.174
								c-0.5,0.03-0.996,0.061-1.491,0.09C210.72,12.988,212.826,13.178,214.905,13.398z"/>
							<path fill="#D1D3D4" d="M236.932,15.757c-2.576-0.917-7.963-0.809-13.04-1.076c2.241,0.252,4.453,0.477,6.628,0.652
								C232.694,15.497,234.833,15.634,236.932,15.757z"/>
							<path fill="#D1D3D4" d="M253.087,9.93c-0.461-0.128-0.908-0.275-1.343-0.432c-2.378,0.127-4.75,0.253-7.12,0.38
								c0.504,0.088,0.999,0.175,1.504,0.264C248.447,10.082,250.768,9.965,253.087,9.93z"/>
							<path fill="#D1D3D4" d="M215.093,11.745c5.587-0.361,11.662,0.138,17.551,0.357c5.894,0.302,11.605,0.469,16.552-0.695
								c-1.537-0.455-3.205-0.845-4.918-1.208c-5.03,0.17-10.06,0.213-15.079,0.454c-3.021,0.145-6.044,0.245-9.067,0.278
								l-3.9,0.083l-3.895,0.147c0.138,0.593,0.5,1.084,1.061,1.486c2.055-0.123,4.108-0.169,6.159-0.199
								C218.12,12.153,216.646,11.854,215.093,11.745z"/>
							<path fill="#D1D3D4" d="M243.13,9.958c-4.646,0.232-9.292,0.463-13.932,0.695c5.02-0.241,10.049-0.284,15.079-0.454
								C243.897,10.12,243.515,10.04,243.13,9.958z"/>
							<path fill="#D1D3D4" d="M230.677,14.467c-4.022-0.197-7.453-1.24-11.121-2.018c-2.051,0.03-4.104,0.077-6.159,0.199
								c0.409,0.294,0.917,0.541,1.509,0.75C220.184,14.021,225.299,14.918,230.677,14.467z"/>
							<path fill="#D1D3D4" d="M223.892,14.681c-2.582-0.314-5.208-0.634-7.852-0.957C218.172,14.283,220.981,14.534,223.892,14.681
								z"/>
							<path fill="#D1D3D4" d="M220.131,10.932c3.023-0.034,6.047-0.134,9.067-0.278C226.174,10.765,223.149,10.861,220.131,10.932z
								"/>
							<path fill="#D1D3D4" d="M260.386,9.808c-0.703-0.103-1.4-0.204-2.104-0.306c-1.348-0.021-2.689-0.042-4.03-0.063
								l-1.042,0.013l-1.466,0.047c0.435,0.156,0.882,0.304,1.343,0.432L260.386,9.808z"/>
							<path fill="#D1D3D4" d="M270.091,13.211c-0.298-0.131-0.606-0.239-0.913-0.348c-1.483-0.021-2.973-0.042-4.458-0.062
								C266.506,12.973,268.293,13.105,270.091,13.211z"/>
							<path fill="#D1D3D4" d="M212.288,10.946c0.007,0.076,0.03,0.143,0.048,0.216l3.895-0.147l3.9-0.083
								C217.519,10.937,214.905,10.941,212.288,10.946z"/>
							<path fill="#D1D3D4" d="M269.178,12.863c5.864,0.144,11.715,0.239,17.571,0.184c-5.31-0.772-10.627-1.581-16.163-2.116
								c-3.385-0.239-6.802-0.634-10.2-1.123l-7.299,0.122C257.967,11.318,264.124,11.114,269.178,12.863z"/>
							<path fill="#D1D3D4" d="M246.128,10.143l-1.851,0.057c1.713,0.364,3.381,0.753,4.918,1.208
								c-4.946,1.164-10.658,0.997-16.552,0.695c-5.889-0.219-11.964-0.719-17.551-0.357c1.554,0.109,3.027,0.408,4.463,0.704
								c7.642-0.138,15.213-0.251,22.734-0.076c3.761,0.066,7.509,0.065,11.245,0.164c3.737,0.088,7.464,0.176,11.185,0.264
								C258.449,12.225,252.251,11.135,246.128,10.143z"/>
							<path fill="#D1D3D4" d="M253.087,9.93c-2.319,0.035-4.64,0.151-6.959,0.212c6.123,0.992,12.321,2.082,18.592,2.658
								c1.485,0.021,2.975,0.042,4.458,0.062C264.124,11.114,257.967,11.318,253.087,9.93z"/>
							<path fill="#D1D3D4" d="M246.128,10.143c-0.505-0.089-1-0.175-1.504-0.264l-1.494,0.08c0.385,0.081,0.768,0.161,1.147,0.241
								L246.128,10.143z"/>
							<path fill="#D1D3D4" d="M207.704,12.891l0.864,0.022c0.495-0.03,0.991-0.06,1.491-0.09c1.115-0.058,2.223-0.116,3.337-0.174
								c-0.561-0.402-0.923-0.893-1.061-1.486c-2.834,0.099-5.663,0.176-8.488,0.226c-2.825,0.064-5.649,0.035-8.46,0.138
								c-0.735,0.161-1.443,0.346-2.124,0.553C198.053,12.012,202.905,12.453,207.704,12.891z"/>
							<path fill="#D1D3D4" d="M244.624,9.879c-0.388-0.069-0.776-0.138-1.167-0.208c-0.555,0.004-1.111,0.008-1.674,0.013
								l1.347,0.274L244.624,9.879z"/>
							<path fill="#D1D3D4" d="M253.21,9.452c-0.512,0.008-1.019,0.016-1.532,0.024c0.018,0.006,0.041,0.015,0.066,0.023
								L253.21,9.452z"/>
							<path fill="#D1D3D4" d="M251.744,9.499c-0.025-0.008-0.049-0.017-0.066-0.023c-2.716,0.088-5.446,0.162-8.221,0.196
								c0.391,0.069,0.779,0.139,1.167,0.208C246.994,9.752,249.366,9.625,251.744,9.499z"/>
							<path fill="#D1D3D4" d="M212.288,10.946c2.617-0.005,5.23-0.009,7.843-0.014c3.019-0.071,6.043-0.167,9.067-0.278
								c4.64-0.231,9.286-0.463,13.932-0.695l-1.347-0.274c-3.466,0.046-7.013-0.091-10.724-0.162
								c-8.482,0.336-14.938,0.761-23.2,0.796c-1.737,0.108-3.812,0.191-5.975,0.348c-2.163,0.153-4.415,0.377-6.497,0.859
								c2.811-0.103,5.635-0.074,8.46-0.138c2.825-0.05,5.654-0.126,8.488-0.226C212.318,11.089,212.295,11.021,212.288,10.946z"/>
							<path fill="#D1D3D4" d="M173.286,17.129c2.226-0.303,4.448-0.632,6.672-0.977c2.23-0.295,4.462-0.59,6.699-0.885
								c4.476-0.577,8.968-1.271,13.519-1.701c-4.521-0.471-9.017-0.826-13.573-1.291c-1.08,0.065-2.151,0.15-3.217,0.251
								c-0.815,0.463-1.623,0.915-2.28,0.883c-1.146-0.07-2.231-0.077-3.293-0.095c-4.501,0.89-8.853,2.208-12.934,4.115
								C167.701,17.33,170.503,17.229,173.286,17.129z"/>
							<path fill="#D1D3D4" d="M188.308,12.191c-1.156-0.134-2.371-0.293-3.622-0.353c-0.143,0.062-0.288,0.135-0.437,0.211
								l2.353,0.226C187.168,12.248,187.74,12.22,188.308,12.191z"/>
							<path fill="#D1D3D4" d="M160.589,17.561c1.438,0,2.866-0.08,4.29-0.13c4.081-1.907,8.433-3.226,12.934-4.115
								c-3.632-0.055-6.963-0.025-11.002,0.341c-2.196,0.536-2.87,2.853-4.882,2.808c-3.509-0.174-7.451-0.577-11.354-0.608
								c-1.944,0.03-3.923-0.056-5.836,0.095c-1.915,0.139-3.777,0.445-5.541,0.994c-9.882,1.04-22.786,1.484-31.198,3.455
								C128.676,19.471,145.069,19.038,160.589,17.561z"/>
							<path fill="#D1D3D4" d="M184.25,12.05c-0.285,0.146-0.574,0.312-0.864,0.477c1.066-0.102,2.137-0.186,3.217-0.251
								L184.25,12.05z"/>
							<path fill="#D1D3D4" d="M260.386,9.808l4.375-0.08c-2.166-0.095-4.329-0.174-6.479-0.227
								C258.985,9.604,259.683,9.706,260.386,9.808z"/>
							<path fill="#D1D3D4" d="M207.335,12.993l0.858-0.058c-0.165-0.015-0.324-0.029-0.489-0.044l-0.761-0.012
								C207.073,12.917,207.202,12.955,207.335,12.993z"/>
							<path fill="#D1D3D4" d="M219.043,15.045c-2.17-0.238-4.199-0.473-6.134-0.781c-1.936-0.319-3.777-0.731-5.574-1.271
								c-2.403,0.161-4.786,0.358-7.159,0.574c3.1,0.33,6.206,0.627,9.343,0.869C212.656,14.694,215.819,14.819,219.043,15.045z"/>
							<path fill="#D1D3D4" d="M206.943,12.879l0.761,0.012c-4.799-0.438-9.651-0.878-14.44-0.812
								c-0.169,0.052-0.34,0.105-0.502,0.156c-1.297,0.279-2.81,0.144-4.453-0.043c-0.568,0.028-1.14,0.057-1.705,0.084
								c4.556,0.465,9.052,0.82,13.573,1.291c2.374-0.216,4.756-0.413,7.159-0.574C207.202,12.955,207.073,12.917,206.943,12.879z"
								/>
							<path fill="#D1D3D4" d="M216.04,13.724c-0.402-0.096-0.785-0.204-1.135-0.326c-2.079-0.22-4.186-0.41-6.337-0.485
								c-0.123,0.007-0.249,0.015-0.375,0.022C210.819,13.199,213.444,13.463,216.04,13.724z"/>
							<path fill="#D1D3D4" d="M208.568,12.913l-0.864-0.022c0.165,0.015,0.324,0.029,0.489,0.044
								C208.319,12.927,208.445,12.92,208.568,12.913z"/>
							<path fill="#D1D3D4" d="M269.178,12.863c0.307,0.108,0.615,0.216,0.913,0.348c-1.798-0.105-3.585-0.238-5.371-0.41
								c-3.721-0.088-7.447-0.176-11.185-0.264c-3.736-0.099-7.484-0.098-11.245-0.164c-7.521-0.175-15.093-0.062-22.734,0.076
								c3.668,0.778,7.099,1.821,11.121,2.018c-5.378,0.451-10.493-0.446-15.771-1.069c0.35,0.122,0.732,0.23,1.135,0.326
								c2.644,0.322,5.27,0.642,7.852,0.957c5.077,0.267,10.464,0.159,13.04,1.076c-2.099-0.123-4.237-0.26-6.412-0.424
								c-2.175-0.175-4.387-0.4-6.628-0.652c-2.91-0.146-5.72-0.398-7.852-0.957c-2.596-0.261-5.221-0.525-7.847-0.79l-0.858,0.058
								c1.797,0.54,3.639,0.952,5.574,1.271c1.935,0.308,3.964,0.543,6.134,0.781c-3.224-0.226-6.387-0.351-9.524-0.609
								c-3.137-0.242-6.243-0.539-9.343-0.869c-4.551,0.43-9.042,1.124-13.519,1.701c-2.237,0.295-4.469,0.59-6.699,0.885
								c-2.224,0.344-4.447,0.674-6.672,0.977c13.833-0.502,27.318-0.374,41.739-1c2.993,0.244,6.199,0.027,9.403-0.246
								c4.428-0.698,8.957,0.847,13.384,0.275c4.373-0.482,8.821-0.809,13.311-0.993c4.49-0.123,9.021-0.049,13.56,0.125
								c4.538,0.147,9.082,0.566,13.602,1.077c4.521,0.524,9.016,1.1,13.455,1.933c2.959,0.53,6.688-0.572,10.436-1.676
								c1-0.294,1.775-0.758,2.343-1.293c-6.112-0.453-11.936-1.378-17.768-2.285C280.893,13.102,275.042,13.007,269.178,12.863z"/>
							<path fill="#D1D3D4" d="M270.586,10.931c5.536,0.536,10.854,1.344,16.163,2.116c6.308,0.011,12.619-0.073,18.957-0.405
								c-0.048-0.642-0.364-1.181-0.906-1.469c-1.926-2.714-7.732,0.393-11.955,0.226c-4.605-0.213-9.284-0.458-13.979-0.783
								c-4.696-0.318-9.411-0.716-14.104-0.887l-4.375,0.08C263.784,10.297,267.201,10.691,270.586,10.931z"/>
							<path fill="#D1D3D4" d="M304.517,15.332c0.881-0.836,1.259-1.849,1.189-2.69c-6.338,0.332-12.649,0.416-18.957,0.405
								C292.581,13.954,298.404,14.879,304.517,15.332z"/>
							<path fill="#9FA1A4" d="M253.151,9.951c-0.021-0.006-0.035-0.01-0.056-0.016c-0.045,0.004-0.095,0.009-0.137,0.014
								L253.151,9.951z"/>
							<path fill="#9FA1A4" d="M220.131,10.932c3.023-0.034,6.047-0.134,9.067-0.278C226.174,10.765,223.149,10.861,220.131,10.932z
								"/>
							<path fill="#9FA1A4" d="M258.688,9.562c-1.348-0.021-2.687-0.042-4.016-0.062c-0.187,0.002-0.361,0.004-0.54,0.006
								c-0.115,0.057-0.217,0.107-0.327,0.162c0.493,0.072,0.493,0.072,0.993,0.145c-0.596,0.072-1.155,0.068-1.665,0.119
								c2.42-0.041,4.837-0.082,7.252-0.122C259.819,9.726,259.252,9.644,258.688,9.562z"/>
							<path fill="#9FA1A4" d="M196.283,11.444c-0.101,0.022-0.194,0.043-0.294,0.066c0.109-0.002,0.214-0.005,0.319-0.008
								L196.283,11.444z"/>
							<path fill="#9FA1A4" d="M198.154,11.11c-0.066,0.009-0.136,0.018-0.206,0.027c0.018,0.09,0.08,0.203,0.144,0.315
								c0.373-0.002,0.752-0.004,1.125-0.007C198.875,11.382,198.515,11.253,198.154,11.11z"/>
							<path fill="#9FA1A4" d="M270.091,13.211c-0.298-0.131-0.606-0.239-0.913-0.348c-1.483-0.021-2.973-0.042-4.458-0.062
								C266.506,12.973,268.293,13.105,270.091,13.211z"/>
							<path opacity="0.9" fill="#9FA1A4" d="M212.288,10.946c2.617-0.005,5.23-0.009,7.843-0.014
								c3.019-0.071,6.043-0.167,9.067-0.278c4.64-0.231,9.286-0.463,13.932-0.695l-0.595-0.12
								c-0.674,0.083-1.363,0.156-2.061,0.196l0.615-0.217c-0.154-0.019-0.365-0.044-0.597-0.072
								c-1.908-0.005-3.853-0.035-5.839-0.099c-1.056,0.061-2.023,0.127-2.74-0.073l-0.439-0.009
								c-4.155,0.182-7.828,0.342-11.466,0.5c-0.002,0.131-0.05,0.26-0.095,0.386c-0.869-0.1-1.734-0.199-2.585-0.297
								c-2.047,0.04-4.112,0.168-6.283,0.182c-0.286,0.247,0.858,0.605,0.297,0.831c-0.073,0.012-0.136,0.021-0.202,0.032
								c0.399-0.012,0.795-0.024,1.195-0.037C212.318,11.089,212.295,11.021,212.288,10.946z"/>
							<path fill="#9FA1A4" d="M244.624,9.879c-0.293-0.052-0.587-0.104-0.872-0.155c-0.15,0.002-0.295,0.004-0.438,0.007
								l-0.778,0.107l0.595,0.12L244.624,9.879z"/>
							<path fill="#9FA1A4" d="M198.143,12.153c3.192,0.174,6.389,0.436,9.562,0.737l0.864,0.022c0.495-0.03,0.991-0.06,1.491-0.09
								c1.115-0.058,2.223-0.116,3.337-0.174c-0.561-0.402-0.923-0.893-1.061-1.486c-0.4,0.013-0.796,0.025-1.195,0.037
								c-0.394,0.061-0.72,0.066-1,0.034c-3.382,0.105-6.762,0.178-10.132,0.208c-0.249,0.064-0.512,0.059-0.791,0.005
								c-0.373,0.002-0.752,0.004-1.125,0.007C198.24,11.708,198.388,11.985,198.143,12.153z"/>
							<path fill="#9FA1A4" d="M151.601,18.562c0.045,0.009,0.088,0.017,0.128,0.025c0.051-0.008,0.103-0.016,0.151-0.023
								C151.79,18.564,151.696,18.563,151.601,18.562z"/>
							<path opacity="0.9" fill="#ADAFB2" d="M173.05,17.161c2.246-0.304,4.489-0.636,6.733-0.982
								c2.249-0.298,4.5-0.597,6.757-0.896c4.515-0.582,9.044-1.281,13.635-1.715c-3.406-0.382-6.795-0.616-10.208-0.966
								c-0.246,0.014-0.498,0.028-0.758,0.043c0.121-0.03,0.232-0.058,0.332-0.083c-0.319-0.031-0.635-0.062-0.952-0.092
								c-0.109,0.208-0.142,0.447-0.073,0.722c-0.916-0.336-3.117,0.139-2.834-0.722c0.009-0.05,0.052-0.096,0.103-0.14
								l-1.854,0.146c-0.856,0.488-1.718,0.989-2.405,0.956c-0.126-0.006-0.247-0.012-0.371-0.018
								c-0.42,0.027-0.876,0.003-1.38-0.061c-0.004-0.003-0.011-0.002-0.014-0.001c-0.271,0.856,1.654,1.239,1.06,1.501
								c-2.78,0.804-3.604-0.191-3.492-1.441c-4.353,0.896-8.554,2.193-12.508,4.047C167.585,17.359,170.327,17.259,173.05,17.161z"
								/>
							<path opacity="0.9" fill="#ABADB0" d="M151.729,18.587c-0.04-0.008-0.083-0.016-0.128-0.025c0.095,0,0.189,0.001,0.279,0.002
								c3.057-0.454,6.093-0.797,9.126-0.983c1.278,0.002,2.547-0.085,3.816-0.123c3.954-1.854,8.155-3.152,12.508-4.047
								l0.009-0.095c-3.29-0.04-6.401,0.014-10.11,0.349c-2.184,0.515-5.329,1.539-7.291,1.391
								c-3.473-0.183-6.326-0.007-9.193,0.537c-0.717,0.134-1.434,0.297-2.164,0.474c-0.735,0.143-1.481,0.308-2.247,0.496
								c-1.531,0.375-3.14,0.838-4.906,1.386c-2.685,0.062-5.276,0.217-7.826,0.246c-2.548,0.05-5.038,0.132-7.5,0.273
								c-4.923,0.292-9.749,0.765-14.668,1.688c6.162-0.34,13.072-0.349,20.029-0.405c3.478,0.018,6.968-0.141,10.378-0.309
								C145.249,19.24,148.588,19.142,151.729,18.587z"/>
							<path fill="#9FA1A4" d="M185.981,12.216c-0.449-0.043-0.899-0.086-1.344-0.129c-0.232,0.128-0.466,0.256-0.707,0.388
								l1.854-0.146C185.84,12.292,185.907,12.254,185.981,12.216z"/>
							<path fill="#9FA1A4" d="M208.188,10.357c-0.375,0.021-0.775,0.043-1.178,0.065c-0.24,0.186-0.75,0.126-1.165,0.063
								c-0.992,0.059-2.036,0.12-3.113,0.184c-0.015,0.042-0.032,0.091-0.048,0.136c0,0-0.122-0.045-0.296-0.111
								c-0.58,0.047-1.166,0.094-1.758,0.142c-0.076,0.137-0.126,0.28-0.162,0.384c-0.144,0.111-0.304,0.181-0.46,0.221
								c3.371-0.03,6.75-0.103,10.132-0.208C209.332,11.136,208.896,10.714,208.188,10.357z"/>
							<path fill="#9FA1A4" d="M197.024,12.121c-0.373-0.131-0.614-0.364-0.716-0.618c-0.105,0.002-0.21,0.005-0.319,0.008
								c-0.773,0.166-1.523,0.354-2.24,0.568C194.836,12.079,195.931,12.095,197.024,12.121z"/>
							<path fill="#9FA1A4" d="M186.634,11.976c-0.498-0.048-1.008-0.091-1.526-0.116c-0.155,0.069-0.312,0.145-0.47,0.228
								c0.445,0.043,0.895,0.086,1.344,0.129C186.157,12.13,186.387,12.052,186.634,11.976z"/>
							<path fill="#9FA1A4" d="M212.288,10.946c0.007,0.076,0.03,0.143,0.048,0.216l3.895-0.147l3.9-0.083
								C217.519,10.937,214.905,10.941,212.288,10.946z"/>
							<path opacity="0.9" fill="#9FA1A4" d="M264.72,12.801c1.485,0.021,2.975,0.042,4.458,0.062
								c-5.028-1.739-11.141-1.55-16.009-2.908c-0.379,0.053-0.8,0.188-1.222,0.326c0.299-0.194,0.64-0.283,1.012-0.333
								c-0.07-0.004-0.147-0.009-0.218-0.013c-2.202,0.069-4.411,0.138-6.613,0.207C252.251,11.135,258.449,12.225,264.72,12.801z"
								/>
							<path opacity="0.9" fill="#CBCCCE" d="M269.178,12.863c0.307,0.108,0.615,0.216,0.913,0.348
								c-1.798-0.105-3.585-0.238-5.371-0.41c-3.721-0.088-7.447-0.176-11.185-0.264c-3.736-0.099-7.484-0.098-11.245-0.164
								c-7.521-0.175-15.093-0.062-22.734,0.076c3.668,0.778,7.099,1.821,11.121,2.018c-5.378,0.451-10.493-0.446-15.771-1.069
								c0.35,0.122,0.732,0.23,1.135,0.326c2.644,0.322,5.27,0.642,7.852,0.957c4.201,0.221,8.608,0.182,11.464,0.696
								c3.234,0.176,6.485,0.298,9.938-0.045c0.675-0.094,1.584-0.268,2.47-0.223c0.731-0.097,1.502-0.145,2.311-0.164
								c0.949-0.396,2.543-0.24,3.377-0.33c1.874-0.222,3.719,0.013,5.504,0.341c0.178-0.017,0.355-0.034,0.527-0.05
								c0.469-0.157,1.725-0.028,2.635,0.348c0.951,0.032,1.906,0.063,2.857,0.095c0.213,0.001,0.418,0.008,0.623,0.026l2.497,0.123
								c0.322-0.152,0.672-0.102,1.06,0.054c3.863,0.268,7.723,0.664,11.562,1.122c3.839,0.46,7.656,0.995,11.435,1.7
								c2.959,0.533,6.688-0.57,10.436-1.671c1.029-0.305,1.816-0.784,2.388-1.339c-6.28-0.439-12.245-1.386-18.224-2.316
								C280.893,13.102,275.042,13.007,269.178,12.863z"/>
							<path fill="#9FA1A4" d="M226.677,14.98l-0.094,0.243c0.738-0.027,1.478-0.039,2.21-0.039
								C228.091,15.117,227.384,15.049,226.677,14.98z"/>
							<path fill="#9FA1A4" d="M246.128,10.143c2.202-0.069,4.411-0.138,6.613-0.207c-0.96-0.045-1.987-0.139-2.899-0.337
								l-5.218,0.28C245.128,9.967,245.623,10.054,246.128,10.143z"/>
							<path fill="#B6B8BA" d="M216.04,13.724c-2.596-0.261-5.221-0.525-7.847-0.79l-0.858,0.058
								c1.797,0.54,3.639,0.952,5.574,1.271c1.935,0.308,3.964,0.543,6.134,0.781c-3.224-0.226-6.387-0.351-9.524-0.609
								c-3.137-0.242-6.243-0.539-9.343-0.869c-4.591,0.435-9.121,1.134-13.635,1.715c-2.256,0.299-4.508,0.598-6.757,0.896
								c-2.244,0.347-4.487,0.678-6.733,0.982c7.856-0.376,15.624-0.262,23.472-0.525c0.532-0.186,0.901-0.559,1.032-0.951
								c3.563,0.818,7.209,0.688,10.909,0.379c3.7-0.284,7.454-0.793,11.201-0.371c0.28,0.238-0.403,0.229-0.67,0.326
								c0.891-0.035,1.773-0.069,2.661-0.103c1.436-0.366,2.93-0.922,4.75-0.963c-0.832-0.09-1.669-0.181-2.514-0.272
								C220.981,14.534,218.172,14.283,216.04,13.724z"/>
							<path fill="#9FA1A4" d="M219.043,15.045c-2.17-0.238-4.199-0.473-6.134-0.781c-1.936-0.319-3.777-0.731-5.574-1.271
								c-2.403,0.161-4.786,0.358-7.159,0.574c3.1,0.33,6.206,0.627,9.343,0.869C212.656,14.694,215.819,14.819,219.043,15.045z"/>
							<path fill="#9FA1A4" d="M223.892,14.681c0.845,0.092,1.682,0.183,2.514,0.272c0.098-0.004,0.188-0.007,0.282-0.011
								l-0.011,0.039c0.707,0.068,1.414,0.136,2.116,0.204c2.21,0.008,4.38,0.059,6.562,0.192
								C232.5,14.863,228.093,14.902,223.892,14.681z"/>
							<path fill="#9FA1A4" d="M258.688,9.562c0.563,0.082,1.131,0.164,1.697,0.247l3.326-0.061l-0.052-0.023
								C261.997,9.669,260.34,9.615,258.688,9.562z"/>
							<path opacity="0.9" fill="#C2C4C6" d="M286.749,13.047c6.44,0.011,12.883-0.08,19.361-0.427
								c-0.076-0.598-0.382-1.1-0.899-1.373c-0.807-1.141-2.305-1.252-4.082-1.011c-0.023,0.246,2.088,0.075,0.858,0.432
								c-0.757,0.457-2.507,0.735-3.991,0.469c-0.274-0.052-0.514-0.098-0.733-0.14l-0.312,0.065
								c-0.112,0.219-0.249,0.377-0.545,0.107c-1.089,0.2-6.855-0.77-7.844-0.809c0.018,0.004,4.619,1.103,4.64,1.107
								c-0.262,0.046-0.53,0.093-0.815,0.143c0.027-0.059,0.053-0.117,0.088-0.175c-0.294-0.013-0.583-0.025-0.878-0.038
								c-0.331,0.297-0.461,0.711-1.083,0.764c0.497,0.089,0.497,0.089,0.99,0.178c-0.752,0.457-2.238,0.19-3.229,0.012
								c0.254-0.543,1.248-0.367,1.742-0.278l-0.494-0.088c0.493,0.088,1.615-0.007,1.245-0.367
								c-0.272-0.272-1.038-0.137-1.615-0.085c-0.12,0.021-0.253,0.027-0.386,0.013c-0.038-0.003-0.073-0.005-0.108-0.013
								c0.035,0.007,0.07,0.009,0.108,0.013c0.108,0.005,0.241-0.001,0.386-0.013c0.205-0.035,0.355-0.12,0.36-0.245
								c-0.492-0.029-0.989-0.059-1.485-0.089c-0.079,0.044-0.167,0.087-0.258,0.124c0.118,0.026,0.25,0.065,0.392,0.122
								l-0.498-0.084l0.106-0.038c-1.056-0.233-1.468,0.435-2.473,0.536c0.584-0.18-0.143-0.579,0.281-0.786
								c-0.111-0.006-0.224-0.012-0.343-0.019c-0.512,0.122-1.057,0.149-1.62,0.125c-0.718,0.183-1.404,0.459-2.048,0.661
								c-0.07-0.512,0.376-0.658,0.914-0.77c-0.55-0.078-1.112-0.18-1.685-0.285c-0.404,0.362-0.351,0.624-1.717,0.646
								c0.106-0.231,0.15-0.529,0.301-0.747c-1.018-0.071-2.032-0.141-3.055-0.211c-0.2,0.03-0.403,0.072-0.602,0.119
								c-0.015,0.023-0.145,0.267-0.619,0.189c0.202-0.077,0.41-0.138,0.619-0.189V10.59c-0.439-0.071-0.896-0.162-1.363-0.257
								c-1.715-0.118-3.425-0.259-5.141-0.353c0.023,0.045,0.055,0.087,0.099,0.121c0.06,0.019,0.118,0.043,0.182,0.071
								c-0.077-0.013-0.138-0.039-0.182-0.071c-0.749-0.235-1.125,0.449-1.934,0.059l0.496,0.071
								c-1.268-0.383-2.361-0.062-3.402,0.114c2.039,0.25,4.078,0.431,6.106,0.585C276.122,11.466,281.439,12.274,286.749,13.047z"
								/>
							<path fill="#9FA1A4" d="M263.566,10.235c0.188-0.062,0.339-0.111,0.703-0.23l-0.558-0.258l-3.326,0.061
								C261.447,9.951,262.511,10.093,263.566,10.235z"/>
							<path fill="#B1B3B6" d="M253.134,9.93c-0.01,0.001-0.027,0.003-0.038,0.004c0.021,0.006,0.034,0.01,0.056,0.016
								c0.014,0,0.035,0,0.05,0.001c0.168-0.023,0.331-0.031,0.481-0.007c-0.156,0.002-0.32,0.005-0.481,0.007l-0.032,0.003
								c4.868,1.358,10.98,1.169,16.009,2.908c5.864,0.144,11.715,0.239,17.571,0.184c-5.31-0.772-10.627-1.581-16.163-2.116
								c-2.028-0.154-4.067-0.335-6.106-0.585c-0.488,0.085-0.973,0.137-1.452,0.068c0.258-0.085,0.405-0.134,0.539-0.178
								c-1.056-0.142-2.119-0.285-3.181-0.427C257.971,9.849,255.554,9.889,253.134,9.93z"/>
							<path fill="#ABADB0" d="M304.973,15.363c0.884-0.857,1.241-1.897,1.138-2.744c-6.479,0.347-12.921,0.438-19.361,0.427
								C292.728,13.978,298.692,14.924,304.973,15.363z"/>
							<path fill="#DEDFE0" d="M206.943,12.879l0.761,0.012c-3.173-0.302-6.369-0.563-9.562-0.737
								c-0.026,0.015-0.047,0.036-0.084,0.053c-0.416,0.052-0.758,0.012-1.034-0.086c-1.093-0.026-2.188-0.042-3.275-0.042
								c-0.192,0.06-0.384,0.119-0.571,0.177c-0.429,0.093-0.887,0.138-1.364,0.153c-0.577,0.086-1.192,0.147-1.846,0.192
								c3.413,0.35,6.801,0.584,10.208,0.966c2.374-0.216,4.756-0.413,7.159-0.574C207.202,12.955,207.073,12.917,206.943,12.879z"
								/>
							<path fill="#9FA1A4" d="M208.568,12.913l-0.864-0.022c0.165,0.015,0.324,0.029,0.489,0.044
								C208.319,12.927,208.445,12.92,208.568,12.913z"/>
							<path fill="#9FA1A4" d="M230.677,14.467c-4.022-0.197-7.453-1.24-11.121-2.018c-2.051,0.03-4.104,0.077-6.159,0.199
								c0.409,0.294,0.917,0.541,1.509,0.75C220.184,14.021,225.299,14.918,230.677,14.467z"/>
							<path fill="#ABADB0" d="M215.093,11.745c5.587-0.361,11.662,0.138,17.551,0.357c5.894,0.302,11.605,0.469,16.552-0.695
								c-1.537-0.455-3.205-0.845-4.918-1.208c-5.03,0.17-10.06,0.213-15.079,0.454c-3.021,0.145-6.044,0.245-9.067,0.278
								l-3.9,0.083l-3.895,0.147c0.138,0.593,0.5,1.084,1.061,1.486c2.055-0.123,4.108-0.169,6.159-0.199
								C218.12,12.153,216.646,11.854,215.093,11.745z"/>
							<path fill="#C9CACC" d="M243.13,9.958c-4.646,0.232-9.292,0.463-13.932,0.695c5.02-0.241,10.049-0.284,15.079-0.454
								C243.897,10.12,243.515,10.04,243.13,9.958z"/>
							<path fill="#9FA1A4" d="M249.842,9.599l-0.013-0.003c-2.012,0.06-4.032,0.105-6.077,0.129
								c0.285,0.05,0.579,0.103,0.872,0.155L249.842,9.599z"/>
							<path fill="#CBCCCE" d="M223.892,14.681c-2.582-0.314-5.208-0.634-7.852-0.957C218.172,14.283,220.981,14.534,223.892,14.681
								z"/>
							<path fill="#9FA1A4" d="M246.128,10.143c-0.505-0.089-1-0.175-1.504-0.264l-1.494,0.08c0.385,0.081,0.768,0.161,1.147,0.241
								L246.128,10.143z"/>
							<path fill="#9FA1A4" d="M190.071,12.348c-0.418-0.042-0.851-0.086-1.296-0.131c-0.082,0.077-0.133,0.162-0.185,0.253
								c0.317,0.03,0.633,0.061,0.952,0.092C189.772,12.495,189.939,12.427,190.071,12.348z"/>
							<path fill="#9FA1A4" d="M207.335,12.993l0.858-0.058c-0.165-0.015-0.324-0.029-0.489-0.044l-0.761-0.012
								C207.073,12.917,207.202,12.955,207.335,12.993z"/>
							<path fill="#9FA1A4" d="M216.04,13.724c-0.402-0.096-0.785-0.204-1.135-0.326c-2.079-0.22-4.186-0.41-6.337-0.485
								c-0.123,0.007-0.249,0.015-0.375,0.022C210.819,13.199,213.444,13.463,216.04,13.724z"/>
							<path fill="#C9CACC" d="M214.905,13.398c-0.592-0.208-1.1-0.455-1.509-0.75c-1.114,0.058-2.222,0.116-3.337,0.174
								c-0.5,0.03-0.996,0.061-1.491,0.09C210.72,12.988,212.826,13.178,214.905,13.398z"/>
							<path fill="#9FA1A4" d="M249.195,11.408c-4.946,1.164-10.658,0.997-16.552,0.695c-5.889-0.219-11.964-0.719-17.551-0.357
								c1.554,0.109,3.027,0.408,4.463,0.704c7.642-0.138,15.213-0.251,22.734-0.076c3.761,0.066,7.509,0.065,11.245,0.164
								c3.737,0.088,7.464,0.176,11.185,0.264c-6.271-0.576-12.469-1.666-18.592-2.658l-1.851,0.057
								C245.99,10.563,247.658,10.953,249.195,11.408z"/>
						</g>
					</g>
				</g>
			</g>
		</g>
	</g>
</g>
</svg>
