<?xml version="1.0" encoding="utf-8"?>
<!-- Generator: Adobe Illustrator 16.0.0, SVG Export Plug-In . SVG Version: 6.00 Build 0)  -->
<!DOCTYPE svg PUBLIC "-//W3C//DTD SVG 1.0//EN" "http://www.w3.org/TR/2001/REC-SVG-20010904/DTD/svg10.dtd">
<svg version="1.0" id="Layer_1" xmlns="http://www.w3.org/2000/svg" xmlns:xlink="http://www.w3.org/1999/xlink" x="0px" y="0px"
	 width="368px" height="367px" viewBox="0 0 368 367" enable-background="new 0 0 368 367" xml:space="preserve">
<circle fill="none" stroke="#006837" stroke-width="28" stroke-miterlimit="10" cx="183.836" cy="183.665" r="165.517"/>
<g>
	<line fill="none" stroke="#006837" stroke-width="28" stroke-miterlimit="10" x1="88.942" y1="237" x2="187.836" y2="18.147"/>
	<line fill="none" stroke="#006837" stroke-width="28" stroke-miterlimit="10" x1="187.836" y1="18.147" x2="277.399" y2="237"/>
	<g>
		<path fill="#006837" d="M73.962,234c0,0,0.089-0.136,0.26-0.398c0.172-0.256,0.427-0.672,0.76-1.125
			c0.665-0.912,1.64-2.378,2.882-3.957c1.241-1.624,2.749-3.45,4.478-5.438c0.865-0.979,1.785-1.958,2.754-3.024
			c0.243-0.272,0.488-0.43,0.737-0.448c0.249-0.016,0.5,0.119,0.755,0.228c0.509,0.257,1.03,0.131,1.562,0.163
			c8.513,0,19.864,0,31.214,0s22.701,0,31.214,0c0.266,0,0.529,0,0.79,0c0.26,0.01,0.518-0.001,0.772-0.125
			c0.254-0.108,0.506-0.256,0.755-0.206c0.249,0.036,0.494,0.287,0.737,0.567c0.97,1.074,1.89,2.049,2.754,3.043
			c0.865,1.023,1.674,1.896,2.422,2.855c0.748,0.935,1.436,1.794,2.056,2.57c0.621,0.765,1.175,1.466,1.657,2.149
			c0.482,0.659,0.892,1.22,1.225,1.675c0.333,0.441,0.588,0.841,0.76,1.087c0.171,0.253,0.26,0.383,0.26,0.383
			s-0.089,0.13-0.26,0.383c-0.172,0.247-0.427,0.646-0.76,1.087c-0.333,0.455-0.742,1.016-1.225,1.675
			c-0.482,0.684-1.037,1.384-1.657,2.15c-0.621,0.775-1.308,1.634-2.056,2.569c-0.748,0.959-1.557,1.832-2.422,2.854
			c-0.865,0.994-1.785,1.97-2.754,3.043c-0.243,0.28-0.488,0.531-0.737,0.567c-0.249,0.051-0.5-0.097-0.755-0.205
			c-0.254-0.124-0.512-0.135-0.772-0.125c-0.261,0-0.524,0-0.79,0c-8.513,0-19.864,0-31.214,0s-22.701,0-31.214,0
			c-0.532,0.031-1.053-0.095-1.562,0.163c-0.254,0.108-0.506,0.243-0.755,0.228c-0.249-0.019-0.494-0.176-0.737-0.448
			c-0.97-1.066-1.89-2.045-2.754-3.023c-1.729-1.989-3.237-3.815-4.478-5.439c-1.242-1.578-2.217-3.044-2.882-3.956
			c-0.333-0.453-0.588-0.869-0.76-1.125C74.051,234.136,73.962,234,73.962,234z"/>
	</g>
	<g>
		<path fill="#006837" d="M208.296,234c0,0,0.081-0.136,0.238-0.398c0.157-0.256,0.39-0.672,0.693-1.125
			c0.607-0.902,1.498-2.405,2.631-3.916c0.567-0.789,1.194-1.662,1.877-2.613c0.683-0.958,1.422-1.839,2.211-2.866
			c0.789-0.979,1.629-1.958,2.515-3.024c0.222-0.272,0.446-0.43,0.673-0.448c0.227-0.016,0.457,0.119,0.689,0.228
			c0.465,0.257,0.941,0.131,1.427,0.163c7.772,0,18.136,0,28.5,0s20.727,0,28.5,0c0.243,0,0.483,0,0.721,0
			c0.238,0.01,0.473-0.001,0.706-0.125c0.232-0.108,0.462-0.256,0.689-0.206c0.227,0.036,0.451,0.287,0.673,0.567
			c0.885,1.074,1.726,2.049,2.515,3.043c0.79,1.023,1.528,1.896,2.211,2.855c0.683,0.935,1.311,1.794,1.877,2.57
			c0.567,0.765,1.073,1.466,1.513,2.149c0.44,0.659,0.814,1.22,1.118,1.675c0.304,0.441,0.537,0.841,0.693,1.087
			c0.157,0.253,0.238,0.383,0.238,0.383s-0.081,0.13-0.238,0.383c-0.157,0.247-0.39,0.646-0.693,1.087
			c-0.304,0.455-0.678,1.016-1.118,1.675c-0.44,0.684-0.946,1.384-1.513,2.15c-0.567,0.775-1.194,1.634-1.877,2.569
			c-0.683,0.959-1.422,1.832-2.211,2.854c-0.789,0.994-1.629,1.97-2.515,3.043c-0.222,0.28-0.446,0.531-0.673,0.567
			c-0.227,0.051-0.457-0.097-0.689-0.205c-0.233-0.124-0.468-0.135-0.706-0.125c-0.238,0-0.478,0-0.721,0c-7.772,0-18.136,0-28.5,0
			s-20.727,0-28.5,0c-0.486,0.031-0.961-0.095-1.427,0.163c-0.232,0.108-0.462,0.243-0.689,0.228
			c-0.227-0.019-0.451-0.176-0.673-0.448c-0.885-1.066-1.726-2.045-2.515-3.023c-0.79-1.027-1.528-1.908-2.211-2.867
			c-0.683-0.95-1.311-1.823-1.877-2.612c-1.134-1.511-2.024-3.014-2.631-3.916c-0.304-0.453-0.537-0.869-0.693-1.125
			C208.377,234.136,208.296,234,208.296,234z"/>
	</g>
	<line fill="none" stroke="#006837" stroke-width="28" stroke-miterlimit="10" x1="218" y1="232" x2="218" y2="348"/>
	<line fill="none" stroke="#006837" stroke-width="28" stroke-miterlimit="10" x1="153" y1="233" x2="153" y2="349"/>
</g>
</svg>
