<?xml version="1.0" encoding="utf-8"?>
<!-- Generator: Adobe Illustrator 16.0.0, SVG Export Plug-In . SVG Version: 6.00 Build 0)  -->
<!DOCTYPE svg PUBLIC "-//W3C//DTD SVG 1.0//EN" "http://www.w3.org/TR/2001/REC-SVG-20010904/DTD/svg10.dtd">
<svg version="1.0" id="Layer_1" xmlns="http://www.w3.org/2000/svg" xmlns:xlink="http://www.w3.org/1999/xlink" x="0px" y="0px"
	 width="235px" height="235px" viewBox="0 0 235 235" enable-background="new 0 0 235 235" xml:space="preserve">
<g>
	<path fill="#603913" d="M229.292,5.707C226.955,3.365,226.691,4,223.384,4s-3.308,2-6.616,2s-3.309-2-6.616-2
		c-3.307,0-3.307,2-6.613,2c-3.309,0-3.309-2-6.617-2c-3.306,0-3.306,2-6.612,2s-3.307-2-6.612-2c-3.308,0-3.308,2-6.614,2
		c-3.309,0-3.309-2-6.616-2c-3.307,0-3.307,2-6.613,2c-3.308,0-3.308-2-6.614-2c-3.309,0-3.309,2-6.617,2c-3.307,0-3.307-2-6.614-2
		c-3.309,0-3.309,2-6.617,2c-3.308,0-3.308-2-6.616-2s-3.309,2-6.617,2s-3.308-2-6.617-2c-3.309,0-3.309,2-6.618,2
		c-3.309,0-3.309-2-6.617-2c-3.309,0-3.309,2-6.619,2s-3.31-2-6.62-2c-3.309,0-3.309,2-6.619,2s-3.31-2-6.619-2
		c-3.31,0-3.31,2-6.62,2c-3.307,0-3.307-2-6.614-2c-3.308,0-3.308,2-6.617,2c-3.31,0-3.31-2-6.62-2c-3.31,0-3.31,2-6.62,2
		s-3.31-2-6.62-2c-3.311,0-3.311,2-6.622,2c-3.309,0-3.309-2-6.618-2c-3.312,0-3.312,2-6.624,2c-3.314,0-3.314-2-6.628-2
		S8.052,3.366,5.707,5.708C3.365,8.045,4,8.308,4,11.616c0,3.308,2,3.308,2,6.616c0,3.309-2,3.309-2,6.617c0,3.306,2,3.306,2,6.613
		c0,3.309-2,3.309-2,6.617c0,3.307,2,3.307,2,6.613s-2,3.306-2,6.612c0,3.307,2,3.307,2,6.614c0,3.308-2,3.308-2,6.616
		c0,3.307,2,3.307,2,6.613c0,3.308-2,3.308-2,6.615c0,3.309,2,3.309,2,6.617c0,3.307-2,3.307-2,6.614c0,3.309,2,3.309,2,6.617
		c0,3.308-2,3.308-2,6.616c0,3.309,2,3.309,2,6.617s-2,3.308-2,6.617c0,3.309,2,3.309,2,6.618c0,3.309-2,3.309-2,6.617
		c0,3.309,2,3.309,2,6.619s-2,3.31-2,6.62c0,3.309,2,3.309,2,6.619s-2,3.31-2,6.619c0,3.31,2,3.31,2,6.62c0,3.307-2,3.307-2,6.614
		c0,3.308,2,3.308,2,6.617c0,3.31-2,3.31-2,6.62c0,3.31,2,3.31,2,6.62s-2,3.31-2,6.62c0,3.311,2,3.311,2,6.622
		c0,3.309-2,3.309-2,6.618c0,3.312,2,3.312,2,6.624c0,3.314-2,3.314-2,6.629c0,3.313-0.633,3.576,1.708,5.922
		C8.045,231.635,8.308,231,11.616,231c3.308,0,3.308-2,6.616-2c3.309,0,3.309,2,6.617,2c3.306,0,3.306-2,6.612-2
		c3.309,0,3.309,2,6.618,2c3.307,0,3.307-2,6.613-2s3.306,2,6.612,2c3.307,0,3.307-2,6.614-2c3.308,0,3.308,2,6.616,2
		c3.307,0,3.307-2,6.613-2c3.308,0,3.308,2,6.615,2c3.309,0,3.309-2,6.617-2c3.307,0,3.307,2,6.614,2c3.309,0,3.309-2,6.617-2
		c3.308,0,3.308,2,6.616,2c3.309,0,3.309-2,6.617-2s3.308,2,6.617,2c3.309,0,3.309-2,6.618-2c3.309,0,3.309,2,6.617,2
		s3.309-2,6.618-2s3.31,2,6.62,2c3.309,0,3.309-2,6.618-2s3.31,2,6.619,2s3.31-2,6.619-2c3.307,0,3.307,2,6.613,2
		c3.309,0,3.309-2,6.617-2c3.31,0,3.31,2,6.62,2c3.31,0,3.31-2,6.619-2c3.311,0,3.311,2,6.62,2c3.312,0,3.312-2,6.622-2
		c3.309,0,3.309,2,6.617,2c3.312,0,3.312-2,6.624-2c3.314,0,3.314,2,6.629,2c3.313,0,3.576,0.634,5.922-1.708
		c2.341-2.337,1.706-2.601,1.706-5.908s-2-3.308-2-6.616s2-3.309,2-6.617c0-3.306-2-3.306-2-6.612c0-3.309,2-3.309,2-6.618
		c0-3.307-2-3.307-2-6.613s2-3.306,2-6.612c0-3.307-2-3.307-2-6.614c0-3.308,2-3.308,2-6.616c0-3.307-2-3.307-2-6.613
		c0-3.308,2-3.308,2-6.615c0-3.309-2-3.309-2-6.617c0-3.307,2-3.307,2-6.614c0-3.309-2-3.309-2-6.618c0-3.308,2-3.308,2-6.616
		c0-3.309-2-3.309-2-6.617s2-3.308,2-6.617c0-3.309-2-3.309-2-6.618c0-3.309,2-3.309,2-6.617c0-3.309-2-3.309-2-6.619s2-3.31,2-6.62
		c0-3.309-2-3.309-2-6.619s2-3.31,2-6.619c0-3.31-2-3.31-2-6.62c0-3.307,2-3.307,2-6.614c0-3.308-2-3.308-2-6.617
		c0-3.31,2-3.31,2-6.62s-2-3.31-2-6.62s2-3.31,2-6.62c0-3.311-2-3.311-2-6.622c0-3.309,2-3.309,2-6.618c0-3.312-2-3.312-2-6.624
		c0-3.314,1.464-3.198,1.987-6.47C231.488,8.658,231.634,8.052,229.292,5.707z"/>
	<path fill="none" stroke="#000000" stroke-miterlimit="10" d="M229.292,5.707C226.955,3.365,226.691,4,223.384,4s-3.308,2-6.616,2
		s-3.309-2-6.616-2c-3.307,0-3.307,2-6.613,2c-3.309,0-3.309-2-6.617-2c-3.306,0-3.306,2-6.612,2s-3.307-2-6.612-2
		c-3.308,0-3.308,2-6.614,2c-3.309,0-3.309-2-6.616-2c-3.307,0-3.307,2-6.613,2c-3.308,0-3.308-2-6.614-2c-3.309,0-3.309,2-6.617,2
		c-3.307,0-3.307-2-6.614-2c-3.309,0-3.309,2-6.617,2c-3.308,0-3.308-2-6.616-2s-3.309,2-6.617,2s-3.308-2-6.617-2
		c-3.309,0-3.309,2-6.618,2c-3.309,0-3.309-2-6.617-2c-3.309,0-3.309,2-6.619,2s-3.31-2-6.62-2c-3.309,0-3.309,2-6.619,2
		s-3.31-2-6.619-2c-3.31,0-3.31,2-6.62,2c-3.307,0-3.307-2-6.614-2c-3.308,0-3.308,2-6.617,2c-3.31,0-3.31-2-6.62-2
		c-3.31,0-3.31,2-6.62,2s-3.31-2-6.62-2c-3.311,0-3.311,2-6.622,2c-3.309,0-3.309-2-6.618-2c-3.312,0-3.312,2-6.624,2
		c-3.314,0-3.314-2-6.628-2S8.052,3.366,5.707,5.708C3.365,8.045,4,8.308,4,11.616c0,3.308,2,3.308,2,6.616c0,3.309-2,3.309-2,6.617
		c0,3.306,2,3.306,2,6.613c0,3.309-2,3.309-2,6.617c0,3.307,2,3.307,2,6.613s-2,3.306-2,6.612c0,3.307,2,3.307,2,6.614
		c0,3.308-2,3.308-2,6.616c0,3.307,2,3.307,2,6.613c0,3.308-2,3.308-2,6.615c0,3.309,2,3.309,2,6.617c0,3.307-2,3.307-2,6.614
		c0,3.309,2,3.309,2,6.617c0,3.308-2,3.308-2,6.616c0,3.309,2,3.309,2,6.617s-2,3.308-2,6.617c0,3.309,2,3.309,2,6.618
		c0,3.309-2,3.309-2,6.617c0,3.309,2,3.309,2,6.619s-2,3.31-2,6.62c0,3.309,2,3.309,2,6.619s-2,3.31-2,6.619c0,3.31,2,3.31,2,6.62
		c0,3.307-2,3.307-2,6.614c0,3.308,2,3.308,2,6.617c0,3.31-2,3.31-2,6.62c0,3.31,2,3.31,2,6.62s-2,3.31-2,6.62
		c0,3.311,2,3.311,2,6.622c0,3.309-2,3.309-2,6.618c0,3.312,2,3.312,2,6.624c0,3.314-2,3.314-2,6.629
		c0,3.313-0.633,3.576,1.708,5.922C8.045,231.635,8.308,231,11.616,231c3.308,0,3.308-2,6.616-2c3.309,0,3.309,2,6.617,2
		c3.306,0,3.306-2,6.612-2c3.309,0,3.309,2,6.618,2c3.307,0,3.307-2,6.613-2s3.306,2,6.612,2c3.307,0,3.307-2,6.614-2
		c3.308,0,3.308,2,6.616,2c3.307,0,3.307-2,6.613-2c3.308,0,3.308,2,6.615,2c3.309,0,3.309-2,6.617-2c3.307,0,3.307,2,6.614,2
		c3.309,0,3.309-2,6.617-2c3.308,0,3.308,2,6.616,2c3.309,0,3.309-2,6.617-2s3.308,2,6.617,2c3.309,0,3.309-2,6.618-2
		c3.309,0,3.309,2,6.617,2s3.309-2,6.618-2s3.31,2,6.62,2c3.309,0,3.309-2,6.618-2s3.31,2,6.619,2s3.31-2,6.619-2
		c3.307,0,3.307,2,6.613,2c3.309,0,3.309-2,6.617-2c3.31,0,3.31,2,6.62,2c3.31,0,3.31-2,6.619-2c3.311,0,3.311,2,6.62,2
		c3.312,0,3.312-2,6.622-2c3.309,0,3.309,2,6.617,2c3.312,0,3.312-2,6.624-2c3.314,0,3.314,2,6.629,2
		c3.313,0,3.576,0.634,5.922-1.708c2.341-2.337,1.706-2.601,1.706-5.908s-2-3.308-2-6.616s2-3.309,2-6.617c0-3.306-2-3.306-2-6.612
		c0-3.309,2-3.309,2-6.618c0-3.307-2-3.307-2-6.613s2-3.306,2-6.612c0-3.307-2-3.307-2-6.614c0-3.308,2-3.308,2-6.616
		c0-3.307-2-3.307-2-6.613c0-3.308,2-3.308,2-6.615c0-3.309-2-3.309-2-6.617c0-3.307,2-3.307,2-6.614c0-3.309-2-3.309-2-6.618
		c0-3.308,2-3.308,2-6.616c0-3.309-2-3.309-2-6.617s2-3.308,2-6.617c0-3.309-2-3.309-2-6.618c0-3.309,2-3.309,2-6.617
		c0-3.309-2-3.309-2-6.619s2-3.31,2-6.62c0-3.309-2-3.309-2-6.619s2-3.31,2-6.619c0-3.31-2-3.31-2-6.62c0-3.307,2-3.307,2-6.614
		c0-3.308-2-3.308-2-6.617c0-3.31,2-3.31,2-6.62s-2-3.31-2-6.62s2-3.31,2-6.62c0-3.311-2-3.311-2-6.622c0-3.309,2-3.309,2-6.618
		c0-3.312-2-3.312-2-6.624c0-3.314,1.464-3.198,1.987-6.47C231.488,8.658,231.634,8.052,229.292,5.707z"/>
</g>
<rect x="11" y="11" fill="#FFFFFF" stroke="#928B78" stroke-miterlimit="10" width="212" height="212"/>
</svg>
